<mxfile host="app.diagrams.net" modified="2024-03-06T17:55:45.505Z" agent="Mozilla/5.0 (Windows NT 10.0; Win64; x64; rv:123.0) Gecko/20100101 Firefox/123.0" etag="2wZ5x719J2_ubh4t1FBr" version="22.1.18" type="device">
  <diagram name="Page-1" id="ZGEv-tAGPgUtbyMZSg28">
    <mxGraphModel dx="1274" dy="669" grid="1" gridSize="10" guides="1" tooltips="1" connect="1" arrows="1" fold="1" page="1" pageScale="1" pageWidth="850" pageHeight="1100" math="0" shadow="0">
      <root>
        <mxCell id="0" />
        <mxCell id="1" parent="0" />
        <mxCell id="WfJjPgoilB7sLDLDDXRg-1" style="edgeStyle=orthogonalEdgeStyle;rounded=0;orthogonalLoop=1;jettySize=auto;html=1;" edge="1" parent="1" source="WfJjPgoilB7sLDLDDXRg-2">
          <mxGeometry relative="1" as="geometry">
            <mxPoint x="260" y="240" as="targetPoint" />
          </mxGeometry>
        </mxCell>
        <mxCell id="WfJjPgoilB7sLDLDDXRg-2" value="Start" style="ellipse;whiteSpace=wrap;html=1;" vertex="1" parent="1">
          <mxGeometry x="200" y="100" width="120" height="80" as="geometry" />
        </mxCell>
        <mxCell id="WfJjPgoilB7sLDLDDXRg-3" value="Koniec" style="ellipse;whiteSpace=wrap;html=1;" vertex="1" parent="1">
          <mxGeometry x="790" y="460" width="120" height="80" as="geometry" />
        </mxCell>
        <mxCell id="WfJjPgoilB7sLDLDDXRg-4" value="&lt;font style=&quot;font-size: 40px;&quot;&gt;Odzyskanie&lt;br&gt;hasła&lt;br&gt;&lt;/font&gt;" style="text;html=1;strokeColor=none;fillColor=none;align=center;verticalAlign=middle;whiteSpace=wrap;rounded=0;" vertex="1" parent="1">
          <mxGeometry x="560" y="261.43" width="120" height="68.57" as="geometry" />
        </mxCell>
        <mxCell id="WfJjPgoilB7sLDLDDXRg-5" style="edgeStyle=orthogonalEdgeStyle;rounded=0;orthogonalLoop=1;jettySize=auto;html=1;entryX=0.5;entryY=0;entryDx=0;entryDy=0;" edge="1" parent="1" source="WfJjPgoilB7sLDLDDXRg-6" target="WfJjPgoilB7sLDLDDXRg-9">
          <mxGeometry relative="1" as="geometry" />
        </mxCell>
        <mxCell id="WfJjPgoilB7sLDLDDXRg-6" value="Podaj email" style="shape=parallelogram;perimeter=parallelogramPerimeter;whiteSpace=wrap;html=1;fixedSize=1;" vertex="1" parent="1">
          <mxGeometry x="200" y="240" width="120" height="60" as="geometry" />
        </mxCell>
        <mxCell id="WfJjPgoilB7sLDLDDXRg-7" style="edgeStyle=orthogonalEdgeStyle;rounded=0;orthogonalLoop=1;jettySize=auto;html=1;entryX=0;entryY=0.75;entryDx=0;entryDy=0;" edge="1" parent="1" source="WfJjPgoilB7sLDLDDXRg-9" target="WfJjPgoilB7sLDLDDXRg-6">
          <mxGeometry relative="1" as="geometry">
            <Array as="points">
              <mxPoint x="160" y="410" />
              <mxPoint x="160" y="284" />
            </Array>
          </mxGeometry>
        </mxCell>
        <mxCell id="WfJjPgoilB7sLDLDDXRg-8" style="edgeStyle=orthogonalEdgeStyle;rounded=0;orthogonalLoop=1;jettySize=auto;html=1;" edge="1" parent="1" source="WfJjPgoilB7sLDLDDXRg-9">
          <mxGeometry relative="1" as="geometry">
            <mxPoint x="390" y="410" as="targetPoint" />
          </mxGeometry>
        </mxCell>
        <mxCell id="WfJjPgoilB7sLDLDDXRg-9" value="Czy email istenieje w bazie danych?" style="rhombus;whiteSpace=wrap;html=1;" vertex="1" parent="1">
          <mxGeometry x="190" y="340" width="140" height="140" as="geometry" />
        </mxCell>
        <mxCell id="WfJjPgoilB7sLDLDDXRg-14" value="Nie" style="text;html=1;strokeColor=none;fillColor=none;align=center;verticalAlign=middle;whiteSpace=wrap;rounded=0;" vertex="1" parent="1">
          <mxGeometry x="160" y="330" width="60" height="30" as="geometry" />
        </mxCell>
        <mxCell id="WfJjPgoilB7sLDLDDXRg-28" style="edgeStyle=orthogonalEdgeStyle;rounded=0;orthogonalLoop=1;jettySize=auto;html=1;entryX=0.5;entryY=0;entryDx=0;entryDy=0;" edge="1" parent="1" source="WfJjPgoilB7sLDLDDXRg-16" target="WfJjPgoilB7sLDLDDXRg-27">
          <mxGeometry relative="1" as="geometry" />
        </mxCell>
        <mxCell id="WfJjPgoilB7sLDLDDXRg-16" value="Wyślij link do odzyskania hasła" style="rounded=0;whiteSpace=wrap;html=1;" vertex="1" parent="1">
          <mxGeometry x="390" y="380" width="120" height="60" as="geometry" />
        </mxCell>
        <mxCell id="WfJjPgoilB7sLDLDDXRg-17" value="Tak" style="text;html=1;strokeColor=none;fillColor=none;align=center;verticalAlign=middle;whiteSpace=wrap;rounded=0;" vertex="1" parent="1">
          <mxGeometry x="330" y="380" width="60" height="30" as="geometry" />
        </mxCell>
        <mxCell id="WfJjPgoilB7sLDLDDXRg-19" style="edgeStyle=orthogonalEdgeStyle;rounded=0;orthogonalLoop=1;jettySize=auto;html=1;entryX=0.5;entryY=0;entryDx=0;entryDy=0;" edge="1" parent="1">
          <mxGeometry relative="1" as="geometry">
            <mxPoint x="450" y="540" as="sourcePoint" />
            <mxPoint x="450" y="576.4000000000001" as="targetPoint" />
          </mxGeometry>
        </mxCell>
        <mxCell id="WfJjPgoilB7sLDLDDXRg-21" style="edgeStyle=orthogonalEdgeStyle;rounded=0;orthogonalLoop=1;jettySize=auto;html=1;entryX=-0.005;entryY=0.672;entryDx=0;entryDy=0;entryPerimeter=0;" edge="1" parent="1">
          <mxGeometry relative="1" as="geometry">
            <Array as="points">
              <mxPoint x="350" y="646" />
              <mxPoint x="350" y="520" />
            </Array>
            <mxPoint x="380" y="646.4000000000001" as="sourcePoint" />
            <mxPoint x="399.4000000000001" y="520.3199999999999" as="targetPoint" />
          </mxGeometry>
        </mxCell>
        <mxCell id="WfJjPgoilB7sLDLDDXRg-24" value="Nie" style="text;html=1;strokeColor=none;fillColor=none;align=center;verticalAlign=middle;whiteSpace=wrap;rounded=0;" vertex="1" parent="1">
          <mxGeometry x="520" y="616.4" width="60" height="30" as="geometry" />
        </mxCell>
        <mxCell id="WfJjPgoilB7sLDLDDXRg-27" value="Podaj nowe hasło" style="shape=parallelogram;perimeter=parallelogramPerimeter;whiteSpace=wrap;html=1;fixedSize=1;" vertex="1" parent="1">
          <mxGeometry x="390" y="480" width="120" height="60" as="geometry" />
        </mxCell>
        <mxCell id="WfJjPgoilB7sLDLDDXRg-37" style="edgeStyle=orthogonalEdgeStyle;rounded=0;orthogonalLoop=1;jettySize=auto;html=1;" edge="1" parent="1" source="WfJjPgoilB7sLDLDDXRg-29" target="WfJjPgoilB7sLDLDDXRg-34">
          <mxGeometry relative="1" as="geometry" />
        </mxCell>
        <mxCell id="WfJjPgoilB7sLDLDDXRg-40" style="edgeStyle=orthogonalEdgeStyle;rounded=0;orthogonalLoop=1;jettySize=auto;html=1;entryX=1;entryY=0.5;entryDx=0;entryDy=0;" edge="1" parent="1" source="WfJjPgoilB7sLDLDDXRg-29" target="WfJjPgoilB7sLDLDDXRg-27">
          <mxGeometry relative="1" as="geometry">
            <Array as="points">
              <mxPoint x="650" y="510" />
            </Array>
          </mxGeometry>
        </mxCell>
        <mxCell id="WfJjPgoilB7sLDLDDXRg-29" value="Czy hasło jest wystarczająco bezpieczne?" style="rhombus;whiteSpace=wrap;html=1;" vertex="1" parent="1">
          <mxGeometry x="580" y="576.4" width="140" height="140" as="geometry" />
        </mxCell>
        <mxCell id="WfJjPgoilB7sLDLDDXRg-39" style="edgeStyle=orthogonalEdgeStyle;rounded=0;orthogonalLoop=1;jettySize=auto;html=1;" edge="1" parent="1" source="WfJjPgoilB7sLDLDDXRg-30" target="WfJjPgoilB7sLDLDDXRg-29">
          <mxGeometry relative="1" as="geometry" />
        </mxCell>
        <mxCell id="WfJjPgoilB7sLDLDDXRg-30" value="Czy nowe hasło&lt;br&gt;pokrywa się ze starymi hasłami?" style="rhombus;whiteSpace=wrap;html=1;" vertex="1" parent="1">
          <mxGeometry x="380" y="576.4" width="140" height="140" as="geometry" />
        </mxCell>
        <mxCell id="WfJjPgoilB7sLDLDDXRg-31" value="Tak" style="text;html=1;strokeColor=none;fillColor=none;align=center;verticalAlign=middle;whiteSpace=wrap;rounded=0;" vertex="1" parent="1">
          <mxGeometry x="290" y="560" width="60" height="30" as="geometry" />
        </mxCell>
        <mxCell id="WfJjPgoilB7sLDLDDXRg-36" style="edgeStyle=orthogonalEdgeStyle;rounded=0;orthogonalLoop=1;jettySize=auto;html=1;" edge="1" parent="1" source="WfJjPgoilB7sLDLDDXRg-34" target="WfJjPgoilB7sLDLDDXRg-3">
          <mxGeometry relative="1" as="geometry" />
        </mxCell>
        <mxCell id="WfJjPgoilB7sLDLDDXRg-34" value="Ustaw nowe hasło" style="rounded=0;whiteSpace=wrap;html=1;" vertex="1" parent="1">
          <mxGeometry x="790" y="616.4" width="120" height="60" as="geometry" />
        </mxCell>
        <mxCell id="WfJjPgoilB7sLDLDDXRg-41" value="Nie" style="text;html=1;strokeColor=none;fillColor=none;align=center;verticalAlign=middle;whiteSpace=wrap;rounded=0;" vertex="1" parent="1">
          <mxGeometry x="580" y="480" width="60" height="30" as="geometry" />
        </mxCell>
        <mxCell id="WfJjPgoilB7sLDLDDXRg-42" value="Tak" style="text;html=1;strokeColor=none;fillColor=none;align=center;verticalAlign=middle;whiteSpace=wrap;rounded=0;" vertex="1" parent="1">
          <mxGeometry x="720" y="616.4" width="60" height="30" as="geometry" />
        </mxCell>
      </root>
    </mxGraphModel>
  </diagram>
</mxfile>
